<?xml version="1.0" encoding="UTF-8"?>
<svg id="Layer_2" data-name="Layer 2" xmlns="http://www.w3.org/2000/svg" viewBox="0 0 96.16 19.94">
  <defs>
    <style>
      .cls-1 {
        fill: #fff;
      }
    </style>
  </defs>
  <g id="Layer_1-2" data-name="Layer 1">
    <g>
      <g>
        <path class="cls-1" d="M28.4,19.94c-.32,0-.6-.06-.84-.18s-.42-.29-.55-.52-.19-.5-.19-.8v-2.29c0-.31.06-.58.19-.81.13-.23.31-.4.55-.52s.52-.18.84-.18.6.06.83.18c.24.12.42.3.55.52.13.22.19.49.19.8h-.76c0-.27-.07-.47-.21-.62s-.34-.21-.6-.21-.46.07-.6.21c-.14.14-.22.34-.22.61v2.3c0,.26.07.47.22.61s.34.21.6.21.46-.07.6-.21c.14-.14.21-.35.21-.61h.76c0,.31-.06.57-.19.8-.13.23-.31.4-.55.52-.24.12-.51.18-.83.18Z"/>
        <path class="cls-1" d="M32.44,19.94c-.32,0-.6-.06-.83-.18-.24-.12-.42-.3-.54-.52-.13-.23-.19-.49-.19-.8v-1c0-.31.06-.58.19-.8.13-.22.31-.4.54-.52.24-.12.51-.18.83-.18s.6.06.83.18c.24.12.42.29.54.52.13.22.19.49.19.8v1c0,.31-.06.57-.19.8-.13.23-.31.4-.54.52-.24.12-.51.18-.83.18ZM32.44,19.26c.26,0,.46-.07.6-.21.14-.14.21-.35.21-.62v-1c0-.27-.07-.48-.21-.62s-.34-.21-.6-.21-.45.07-.6.21-.22.35-.22.62v1c0,.27.07.47.22.62.14.14.34.21.6.21Z"/>
        <path class="cls-1" d="M34.8,19.87v-3.89h.64v.5h.14l-.11.15c0-.22.06-.39.18-.52.12-.13.28-.19.47-.19.21,0,.38.08.49.25.12.17.17.39.17.68l-.17-.36h.27l-.11.15c0-.22.06-.39.18-.52s.28-.19.48-.19c.24,0,.43.09.57.27s.21.42.21.72v2.96h-.68v-2.94c0-.15-.03-.26-.09-.34s-.15-.12-.27-.12-.21.04-.27.12c-.06.08-.09.19-.09.34v2.95h-.57v-2.94c0-.15-.03-.27-.1-.34-.07-.08-.16-.12-.28-.12s-.21.04-.26.12c-.06.08-.09.19-.09.34v2.95h-.69Z"/>
        <path class="cls-1" d="M38.87,19.87v-3.89h.64v.5h.14l-.11.15c0-.22.06-.39.18-.52.12-.13.28-.19.47-.19.21,0,.38.08.49.25.12.17.17.39.17.68l-.17-.36h.27l-.11.15c0-.22.06-.39.18-.52s.28-.19.48-.19c.24,0,.43.09.57.27s.21.42.21.72v2.96h-.68v-2.94c0-.15-.03-.26-.09-.34s-.15-.12-.27-.12-.21.04-.27.12c-.06.08-.09.19-.09.34v2.95h-.57v-2.94c0-.15-.03-.27-.1-.34-.07-.08-.16-.12-.28-.12s-.21.04-.26.12c-.06.08-.09.19-.09.34v2.95h-.69Z"/>
        <path class="cls-1" d="M43.09,19.87v-.69h1.37v-2.5h-1.19v-.69h1.93v3.2h1.25v.69h-3.36ZM44.75,15.31c-.17,0-.3-.04-.4-.13-.1-.09-.15-.2-.15-.35s.05-.27.15-.36c.1-.09.23-.13.4-.13s.3.04.4.13.15.21.15.36-.05.26-.15.35-.23.13-.4.13Z"/>
        <path class="cls-1" d="M48.57,19.94c-.28,0-.52-.04-.73-.13-.21-.09-.38-.21-.5-.37-.12-.16-.19-.35-.21-.56h.76c.02.13.09.23.21.31.12.08.27.12.47.12h.3c.23,0,.41-.05.52-.14.12-.09.18-.22.18-.38s-.05-.27-.16-.36c-.11-.09-.26-.14-.47-.17l-.5-.08c-.42-.07-.72-.18-.92-.36-.2-.17-.29-.43-.29-.77,0-.36.12-.63.35-.83s.58-.29,1.04-.29h.27c.41,0,.73.09.97.28.24.19.38.43.41.75h-.76c-.02-.11-.08-.21-.19-.28-.11-.07-.25-.11-.43-.11h-.27c-.22,0-.38.04-.48.12-.1.08-.15.2-.15.36,0,.14.04.25.13.32.09.07.23.12.42.15l.52.08c.44.06.76.18.97.36s.31.44.31.79c0,.37-.12.66-.36.87-.24.21-.6.31-1.09.31h-.3Z"/>
        <path class="cls-1" d="M52.63,19.94c-.28,0-.52-.04-.73-.13-.21-.09-.38-.21-.5-.37-.12-.16-.19-.35-.21-.56h.76c.02.13.09.23.21.31.12.08.27.12.47.12h.3c.23,0,.41-.05.52-.14.12-.09.18-.22.18-.38s-.05-.27-.16-.36c-.11-.09-.26-.14-.47-.17l-.5-.08c-.42-.07-.72-.18-.92-.36-.2-.17-.29-.43-.29-.77,0-.36.12-.63.35-.83s.58-.29,1.04-.29h.27c.41,0,.73.09.97.28.24.19.38.43.41.75h-.76c-.02-.11-.08-.21-.19-.28-.11-.07-.25-.11-.43-.11h-.27c-.22,0-.38.04-.48.12-.1.08-.15.2-.15.36,0,.14.04.25.13.32.09.07.23.12.42.15l.52.08c.44.06.76.18.97.36s.31.44.31.79c0,.37-.12.66-.36.87-.24.21-.6.31-1.09.31h-.3Z"/>
        <path class="cls-1" d="M55.28,19.87v-.69h1.37v-2.5h-1.19v-.69h1.93v3.2h1.25v.69h-3.36ZM56.94,15.31c-.17,0-.3-.04-.4-.13-.1-.09-.15-.2-.15-.35s.05-.27.15-.36c.1-.09.23-.13.4-.13s.3.04.4.13.15.21.15.36-.05.26-.15.35-.23.13-.4.13Z"/>
        <path class="cls-1" d="M60.89,19.94c-.32,0-.6-.06-.83-.18-.24-.12-.42-.3-.54-.52-.13-.23-.19-.49-.19-.8v-1c0-.31.06-.58.19-.8.13-.22.31-.4.54-.52.24-.12.51-.18.83-.18s.6.06.83.18c.24.12.42.29.54.52.13.22.19.49.19.8v1c0,.31-.06.57-.19.8-.13.23-.31.4-.54.52-.24.12-.51.18-.83.18ZM60.89,19.26c.26,0,.46-.07.6-.21.14-.14.21-.35.21-.62v-1c0-.27-.07-.48-.21-.62s-.34-.21-.6-.21-.45.07-.6.21-.22.35-.22.62v1c0,.27.07.47.22.62.14.14.34.21.6.21Z"/>
        <path class="cls-1" d="M63.43,19.87v-3.89h.76v.74h.18l-.18.18c0-.31.09-.55.28-.73s.44-.26.76-.26c.39,0,.7.12.93.37.23.25.35.58.35,1v2.59h-.76v-2.5c0-.25-.07-.45-.21-.59-.14-.14-.32-.2-.56-.2s-.43.07-.57.21c-.14.14-.21.35-.21.63v2.45h-.76Z"/>
        <path class="cls-1" d="M68.89,19.94c-.28,0-.52-.04-.73-.13-.21-.09-.38-.21-.5-.37-.12-.16-.19-.35-.21-.56h.76c.02.13.09.23.21.31.12.08.27.12.47.12h.3c.23,0,.41-.05.52-.14.12-.09.18-.22.18-.38s-.05-.27-.16-.36c-.11-.09-.26-.14-.47-.17l-.5-.08c-.42-.07-.72-.18-.92-.36-.2-.17-.29-.43-.29-.77,0-.36.12-.63.35-.83s.58-.29,1.04-.29h.27c.41,0,.73.09.97.28.24.19.38.43.41.75h-.76c-.02-.11-.08-.21-.19-.28-.11-.07-.25-.11-.43-.11h-.27c-.22,0-.38.04-.48.12-.1.08-.15.2-.15.36,0,.14.04.25.13.32.09.07.23.12.42.15l.52.08c.44.06.76.18.97.36s.31.44.31.79c0,.37-.12.66-.36.87-.24.21-.6.31-1.09.31h-.3Z"/>
      </g>
      <g>
        <path class="cls-1" d="M6.25,4.47c-.88.21-1.05.37-1.25,1.25-.21-.88-.37-1.05-1.25-1.25.88-.21,1.05-.37,1.25-1.25.21.88.37,1.05,1.25,1.25Z"/>
        <path class="cls-1" d="M4.47,2.24c-1.57.37-1.87.67-2.24,2.24-.37-1.57-.67-1.87-2.24-2.24,1.57-.37,1.87-.67,2.24-2.24.37,1.57.67,1.87,2.24,2.24Z"/>
        <path class="cls-1" d="M96.16,11.24c-1.57.37-1.87.67-2.24,2.24-.37-1.57-.67-1.87-2.24-2.24,1.57-.37,1.87-.67,2.24-2.24.37,1.57.67,1.87,2.24,2.24Z"/>
        <path class="cls-1" d="M12.33,6.73h5.35v4.52h-1.54l-.15-1.22c-.91.9-2.3,1.22-3.64,1.22-2.96-.01-5.39-.87-5.38-3.84v-.57c-.01-2.98,2.41-3.84,5.38-3.84,2.73,0,4.98.74,5.33,3.17h-3.26c-.19-.26-.47-.44-.84-.53s-.77-.14-1.22-.14c-1.26.02-2.33.25-2.31,1.54v.19c-.02,1.29,1.05,1.52,2.31,1.54,1.21,0,1.99-.07,2.45-.67h-2.47v-1.35Z"/>
        <path class="cls-1" d="M26.35,3.18c1.62-.02,3,1.35,2.98,2.98,0,.59-.16,1.13-.47,1.61-.31.47-.73.84-1.24,1.08l1.72,2.21h-3.27l-1.48-1.92h-2.74v1.92h-3.07V3.18h7.59ZM21.84,5.49v1.34h3.74c.19,0,.35-.06.47-.19s.2-.29.2-.47c0-.38-.3-.67-.67-.67h-3.74Z"/>
        <path class="cls-1" d="M34.03,3.19h3.65l4.22,7.88h-3.46l-.62-1.35h-3.94l-.62,1.35h-3.46l4.22-7.88ZM34.77,7.79h2.16l-1.08-2.33-1.08,2.33Z"/>
        <path class="cls-1" d="M49.97,3.19c1.62-.02,3,1.35,2.98,2.98.02,1.62-1.35,3-2.98,2.98h-4.52v1.92h-3.07V3.19h7.59ZM49.2,6.83c.18,0,.34-.06.47-.19s.2-.29.2-.47-.06-.35-.2-.47c-.13-.13-.29-.2-.47-.2h-3.75v1.34h3.75Z"/>
        <path class="cls-1" d="M56.61,8.36v2.69h-3.07V3.18h3.07v2.69h4.61v-2.69h3.08v7.88h-3.08v-2.69h-4.61Z"/>
        <path class="cls-1" d="M68.67,3.18v7.88h-3.07V3.18h3.07Z"/>
        <path class="cls-1" d="M80.31,7.79c-.19,2.66-2.53,3.46-5.36,3.46-2.95,0-5.39-.86-5.38-3.84v-.57c-.01-2.98,2.43-3.83,5.38-3.84,2.84,0,5.17.8,5.36,3.46h-3.15c-.29-.77-1.16-.96-2.21-.96-1.25.02-2.32.24-2.3,1.54v.19c-.02,1.28,1.05,1.52,2.3,1.54,1.05,0,1.93-.19,2.21-.96h3.15Z"/>
        <path class="cls-1" d="M86.41,6.22c2.2.11,5.29.26,5.28,2.24,0,2.25-2.58,2.78-5.34,2.78-2.76,0-5.05-.34-5.34-2.78h3.22c.35.61,1.17.77,2.13.77s2.13-.16,2.13-.77c0-.35-.96-.4-2.19-.46-2.2-.11-5.29-.26-5.28-2.23,0-2.25,2.58-2.79,5.34-2.79,2.76.02,5.05.33,5.34,2.79h-3.22c-.35-.62-1.17-.77-2.13-.77s-2.13.14-2.13.77c0,.35.96.39,2.19.45Z"/>
        <path class="cls-1" d="M69.36,12.74c-.17,0-.23-.07-.27-.12-.65-.74,3.34-4.58,5.54-6.52h0c2.2-1.93,6.53-5.39,7.17-4.66.11.12.39.44-1.32,2.38-1.05,1.2-2.54,2.66-4.22,4.13-1.67,1.47-3.32,2.77-4.64,3.65-1.36.91-1.97,1.12-2.26,1.12ZM74.82,6.33c-4.01,3.52-5.69,5.81-5.51,6.09.26.21,2.74-1.16,6.75-4.68,4.01-3.53,5.7-5.81,5.51-6.09-.26-.22-2.74,1.16-6.75,4.68h0Z"/>
      </g>
    </g>
  </g>
</svg>